{"title":"Dawn of the Planet of the Apes (2014) CamRip *PROPER* [RUS]","uid":10616756,"size":1529427968,"categoryP":"video","categoryS":"movies","magnet":"?xt=urn:btih:018a6b6b5dc3aaf29c953d99cacef3ed642c2f89&amp;dn=Dawn+of+the+Planet+of+the+Apes+%282014%29+CamRip+%2APROPER%2A+%5BRUS%5D&amp;tr=udp%3A%2F%2Ftracker.openbittorrent.com%3A80&amp;tr=udp%3A%2F%2Fopen.demonii.com%3A1337&amp;tr=udp%3A%2F%2Ftracker.coppersurfer.tk%3A6969&amp;tr=udp%3A%2F%2Fexodus.desync.com%3A6969","seeders":5,"leechers":0,"uploader":"yfjfrj","files":1,"time":1406128083,"description":"Dawn of the Planet of the Apes (2014) CamRip *PROPER* [RUS]\n\nLanguage - Russian!!!!\n\nIn the wake of a disaster that changed the world, the growing and genetically evolving apes find themselves at a critical point with the human race.\n\nMediaInfo:\nGeneral\nComplete name                            : D:moviesPlaneta.Obezjan.Revoluciya.Dt.CAMRip.PROPER.v2.avi\nFormat                                   : AVI\nFormat/Info                              : Audio Video Interleave\nFile size                                : 1.42 GiB\nDuration                                 : 1h 55mn\nOverall bit rate                         : 1 769 Kbps\nWriting application                      : VirtualDubMod 1.5.10.2 (build 2542/release)\nWriting library                          : VirtualDubMod build 2542/release\n\nVideo\nID                                       : 0\nFormat                                   : MPEG-4 Visual\nFormat profile                           : Advanced Simple@L5\nFormat settings, BVOP                    : 2\nFormat settings, QPel                    : No\nFormat settings, GMC                     : No warppoints\nFormat settings, Matrix                  : Default (MPEG)\nMuxing mode                              : Packed bitstream\nCodec ID                                 : XVID\nCodec ID/Hint                            : XviD\nDuration                                 : 1h 55mn\nBit rate                                 : 1 568 Kbps\nWidth                                    : 720 pixels\nHeight                                   : 304 pixels\nDisplay aspect ratio                     : 2.35:1\nFrame rate                               : 25.000 fps\nColor space                              : YUV\nChroma subsampling                       : 4:2:0\nBit depth                                : 8 bits\nScan type                                : Progressive\nCompression mode                         : Lossy\nBits/(Pixel*Frame)                       : 0.286\nStream size                              : 1.26 GiB (89%)\nWriting library                          : XviD 64\n\nAudio\nID                                       : 1\nFormat                                   : AC-3\nFormat/Info                              : Audio Coding 3\nMode extension                           : CM (complete main)\nFormat settings, Endianness              : Big\nCodec ID                                 : 2000\nDuration                                 : 1h 55mn\nBit rate mode                            : Constant\nBit rate                                 : 192 Kbps\nChannel(s)                               : 2 channels\nChannel positions                        : Front: L R\nSampling rate                            : 48.0 KHz\nBit depth                                : 16 bits\nCompression mode                         : Lossy\nStream size                              : 158 MiB (11%)\nAlignment                                : Split accross interleaves\nInterleave, duration                     : 40 ms (1.00 video frame)\nInterleave, preload duration             : 500 ms\n\n\nScreenshots: &lt;a href=&quot;\nhttp://i6.imageban.ru/out/2014/07/23/d9fa86c91fab6694996c5c0ceeefadd9.png&quot; rel=&quot;nofollow&quot; target=&quot;_NEW&quot;&gt;\nhttp://i6.imageban.ru/out/2014/07/23/d9fa86c91fab6694996c5c0ceeefadd9.png&lt;/a&gt; &lt;a href=&quot;\nhttp://i5.imageban.ru/out/2014/07/23/ebd67f597908cab50d1347caa1d7c4ac.png&quot; rel=&quot;nofollow&quot; target=&quot;_NEW&quot;&gt;\nhttp://i5.imageban.ru/out/2014/07/23/ebd67f597908cab50d1347caa1d7c4ac.png&lt;/a&gt; &lt;a href=&quot;\nhttp://i6.imageban.ru/out/2014/07/23/4e69db5e7da3247cec4a8e71a05f132c.png&quot; rel=&quot;nofollow&quot; target=&quot;_NEW&quot;&gt;\nhttp://i6.imageban.ru/out/2014/07/23/4e69db5e7da3247cec4a8e71a05f132c.png&lt;/a&gt; &lt;a href=&quot;\nhttp://i4.imageban.ru/out/2014/07/23/e0c976ca4e62a7e96493b4528d23fbb9.png&quot; rel=&quot;nofollow&quot; target=&quot;_NEW&quot;&gt;\nhttp://i4.imageban.ru/out/2014/07/23/e0c976ca4e62a7e96493b4528d23fbb9.png&lt;/a&gt; &lt;a href=&quot;\nhttp://i6.imageban.ru/out/2014/07/23/caa746adc4afbda3120017332c86b807.png&quot; rel=&quot;nofollow&quot; target=&quot;_NEW&quot;&gt;\nhttp://i6.imageban.ru/out/2014/07/23/caa746adc4afbda3120017332c86b807.png&lt;/a&gt; &lt;a href=&quot;\nhttp://i6.imageban.ru/out/2014/07/23/01cf2e3e447db306d1eccdd3d1c88505.png&quot; rel=&quot;nofollow&quot; target=&quot;_NEW&quot;&gt;\nhttp://i6.imageban.ru/out/2014/07/23/01cf2e3e447db306d1eccdd3d1c88505.png&lt;/a&gt; &lt;a href=&quot;\nhttp://i4.imageban.ru/out/2014/07/23/a291ff52bd46162362684033d6dd9e79.png&quot; rel=&quot;nofollow&quot; target=&quot;_NEW&quot;&gt;\nhttp://i4.imageban.ru/out/2014/07/23/a291ff52bd46162362684033d6dd9e79.png&lt;/a&gt; &lt;a href=&quot;\nhttp://i4.imageban.ru/out/2014/07/23/c042140659c740731f5655f84dcb84f1.png&quot; rel=&quot;nofollow&quot; target=&quot;_NEW&quot;&gt;\nhttp://i4.imageban.ru/out/2014/07/23/c042140659c740731f5655f84dcb84f1.png&lt;/a&gt; &lt;a href=&quot;\nhttp://i6.imageban.ru/out/2014/07/23/c7d150ab0db641b8d247a2ec962f126b.png&quot; rel=&quot;nofollow&quot; target=&quot;_NEW&quot;&gt;\nhttp://i6.imageban.ru/out/2014/07/23/c7d150ab0db641b8d247a2ec962f126b.png&lt;/a&gt; &lt;a href=&quot;\nhttp://i6.imageban.ru/out/2014/07/23/6074cbdf03627936ff6753265ac6fc8c.png&quot; rel=&quot;nofollow&quot; target=&quot;_NEW&quot;&gt;\nhttp://i6.imageban.ru/out/2014/07/23/6074cbdf03627936ff6753265ac6fc8c.png&lt;/a&gt; &lt;a href=&quot;\nhttp://i6.imageban.ru/out/2014/07/23/2ac10ab3b3796a72c6e804707e7a3f2d.png&quot; rel=&quot;nofollow&quot; target=&quot;_NEW&quot;&gt;\nhttp://i6.imageban.ru/out/2014/07/23/2ac10ab3b3796a72c6e804707e7a3f2d.png&lt;/a&gt; &lt;a href=&quot;\nhttp://i5.imageban.ru/out/2014/07/23/9e588f8a589c80030867138085e274a3.png&quot; rel=&quot;nofollow&quot; target=&quot;_NEW&quot;&gt;\nhttp://i5.imageban.ru/out/2014/07/23/9e588f8a589c80030867138085e274a3.png&lt;/a&gt;\n\n\nCamRip: https://thepiratebay.se/torrent/10605226/Dawn_of_the_Planet_of_the_Apes_(2014)_CamRip_[RUS] vs CamRip *PROPER*:\n &lt;a href=&quot;\nhttp://screenshotcomparison.com/comparison/84705&quot; rel=&quot;nofollow&quot; target=&quot;_NEW&quot;&gt;\nhttp://screenshotcomparison.com/comparison/84705&lt;/a&gt;","torrent":{"xt":"urn:btih:018a6b6b5dc3aaf29c953d99cacef3ed642c2f89","amp;dn":"Dawn+of+the+Planet+of+the+Apes+%282014%29+CamRip+%2APROPER%2A+%5BRUS%5D","amp;tr":["udp%3A%2F%2Ftracker.openbittorrent.com%3A80","udp%3A%2F%2Fopen.demonii.com%3A1337","udp%3A%2F%2Ftracker.coppersurfer.tk%3A6969","udp%3A%2F%2Fexodus.desync.com%3A6969"],"infoHash":"018a6b6b5dc3aaf29c953d99cacef3ed642c2f89","infoHashBuffer":{"type":"Buffer","data":[1,138,107,107,93,195,170,242,156,149,61,153,202,206,243,237,100,44,47,137]},"announce":[],"urlList":[]}}